name C:\Users\u0101727\Documents\MyRepositories\upper-imu-dc\Results\main_tracking\Case_29\kinematics.mot
datacolumns 43
datarows 13
range 1.84000000 1.96000000
endheader 
time	clav_prot	clav_elev	scapula_abduction	scapula_elevation	scapula_upward_rot	scapula_winging	plane_elv	shoulder_elv	axial_rot	TrapeziusScapula_M/activation	TrapeziusScapula_S/activation	TrapeziusScapula_I/activation	TrapeziusClavicle_S/activation	SerratusAnterior_I/activation	SerratusAnterior_M/activation	SerratusAnterior_S/activation	Rhomboideus_S/activation	Rhomboideus_I/activation	LevatorScapulae/activation	Coracobrachialis/activation	DeltoideusClavicle_A/activation	DeltoideusScapula_P/activation	DeltoideusScapula_M/activation	LatissimusDorsi_S/activation	LatissimusDorsi_M/activation	LatissimusDorsi_I/activation	PectoralisMajorClavicle_S/activation	PectoralisMajorThorax_I/activation	PectoralisMajorThorax_M/activation	TeresMajor/activation	Infraspinatus_I/activation	Infraspinatus_S/activation	PectoralisMinor/activation	TeresMinor/activation	Subscapularis_S/activation	Subscapularis_M/activation	Subscapularis_I/activation	Supraspinatus_P/activation	Supraspinatus_A/activation	TRIlong/activation	BIC_long/activation	BIC_brevis/activation	
          1.84000000	        -27.40939711	          6.48328770	          1.29496626	         -2.81780427	         47.97183267	         -5.38365229	         69.71847903	         67.09418267	        -20.15068011	          0.01001080	          0.01001083	          0.01001079	          0.01001077	          0.01001079	          0.01001079	          0.01001077	          0.01001081	          0.01001081	          0.01001080	          0.01001081	          0.01001078	          0.01001078	          0.01001079	          0.01001078	          0.01001078	          0.01001079	          0.01001079	          0.01001077	          0.01001078	          0.01001082	          0.01001013	          0.01001112	          0.01001085	          0.01001070	          0.01001084	          0.01001081	          0.01001083	          0.01001083	          0.01001081	          0.01001079	          0.01001084	          0.01001080	
          1.85000000	        -27.64217135	          6.66526816	          1.20346248	         -2.74528944	         48.42332377	         -5.51529897	         69.71450946	         67.41623827	        -19.69832263	          0.01001079	          0.01001082	          0.01001080	          0.01001078	          0.01001080	          0.01001079	          0.01001078	          0.01001080	          0.01001080	          0.01001079	          0.01001081	          0.01001079	          0.01001078	          0.01001080	          0.01001079	          0.01001078	          0.01001079	          0.01001079	          0.01001078	          0.01001078	          0.01001082	          0.01001031	          0.01001111	          0.01001085	          0.01001070	          0.01001084	          0.01001081	          0.01001082	          0.01001083	          0.01001081	          0.01001078	          0.01001084	          0.01001080	
          1.86000000	        -27.87451714	          6.84327797	          1.11437149	         -2.67455364	         48.87459608	         -5.64594328	         69.67612521	         67.74287457	        -19.31360888	          0.01001078	          0.01001080	          0.01001080	          0.01001081	          0.01001080	          0.01001079	          0.01001078	          0.01001079	          0.01001080	          0.01001079	          0.01001081	          0.01001079	          0.01001078	          0.01001080	          0.01001079	          0.01001079	          0.01001079	          0.01001079	          0.01001079	          0.01001079	          0.01001082	          0.01001049	          0.01001107	          0.01001085	          0.01001070	          0.01001084	          0.01001081	          0.01001081	          0.01001082	          0.01001080	          0.01001078	          0.01001083	          0.01001079	
          1.87000000	        -28.10631829	          7.01756358	          1.02680318	         -2.60530861	         49.32443948	         -5.77547204	         69.60386206	         68.07561169	        -19.00877816	          0.01001078	          0.01001082	          0.01001080	          0.01001082	          0.01001080	          0.01001079	          0.01001078	          0.01001078	          0.01001079	          0.01001078	          0.01001081	          0.01001079	          0.01001078	          0.01001080	          0.01001080	          0.01001079	          0.01001079	          0.01001080	          0.01001079	          0.01001079	          0.01001082	          0.01001062	          0.01001102	          0.01001085	          0.01001072	          0.01001083	          0.01001080	          0.01001080	          0.01001081	          0.01001079	          0.01001078	          0.01001082	          0.01001079	
          1.88000000	        -28.33758635	          7.18881149	          0.93978333	         -2.53700859	         49.77199092	         -5.90393722	         69.49975096	         68.41459071	        -18.78555619	          0.01001080	          0.01001085	          0.01001080	          0.01001081	          0.01001080	          0.01001079	          0.01001078	          0.01001077	          0.01001078	          0.01001078	          0.01001081	          0.01001080	          0.01001079	          0.01001080	          0.01001079	          0.01001072	          0.01001079	          0.01001080	          0.01001080	          0.01001081	          0.01001081	          0.01001068	          0.01001098	          0.01001086	          0.01001074	          0.01001081	          0.01001080	          0.01001079	          0.01001080	          0.01001078	          0.01001078	          0.01001081	          0.01001079	
          1.89000000	        -28.56845932	          7.35791251	          0.85232230	         -2.46901077	         50.21672224	         -6.03150095	         69.36712959	         68.75877943	        -18.63607571	          0.01001083	          0.01001075	          0.01001080	          0.01001077	          0.01001080	          0.01001079	          0.01001081	          0.01001077	          0.01001078	          0.01001078	          0.01001081	          0.01001080	          0.01001079	          0.01001081	          0.01001069	          0.01001073	          0.01001079	          0.01001080	          0.01001080	          0.01001070	          0.01001080	          0.01001066	          0.01001094	          0.01001087	          0.01001076	          0.01001081	          0.01001080	          0.01001079	          0.01001079	          0.01001078	          0.01001078	          0.01001080	          0.01001078	
          1.90000000	        -28.79919066	          7.52574769	          0.76343632	         -2.40071391	         50.65835782	         -6.15837839	         69.21026371	         69.10646042	        -18.54722105	          0.01001081	          0.01001073	          0.01001080	          0.01001078	          0.01001080	          0.01001079	          0.01001076	          0.01001077	          0.01001078	          0.01001079	          0.01001081	          0.01001080	          0.01001079	          0.01001081	          0.01001082	          0.01001081	          0.01001079	          0.01001079	          0.01001080	          0.01001077	          0.01001081	          0.01001061	          0.01001084	          0.01001087	          0.01001077	          0.01001080	          0.01001080	          0.01001078	          0.01001079	          0.01001078	          0.01001077	          0.01001080	          0.01001078	
          1.91000000	        -29.03008095	          7.69301011	          0.67222409	         -2.33166569	         51.09675154	         -6.28477535	         69.03384832	         69.45574167	        -18.50573472	          0.01001076	          0.01001083	          0.01001079	          0.01001078	          0.01001080	          0.01001079	          0.01001076	          0.01001078	          0.01001077	          0.01001079	          0.01001081	          0.01001080	          0.01001079	          0.01001081	          0.01001068	          0.01001067	          0.01001083	          0.01001079	          0.01001081	          0.01001074	          0.01001086	          0.01001053	          0.01001082	          0.01001087	          0.01001078	          0.01001081	          0.01001084	          0.01001080	          0.01001080	          0.01001078	          0.01001077	          0.01001080	          0.01001078	
          1.92000000	        -29.26134958	          7.86007924	          0.57802895	         -2.26162992	         51.53176015	         -6.41082461	         68.84251556	         69.80489429	        -18.50115256	          0.01001078	          0.01001082	          0.01001080	          0.01001078	          0.01001080	          0.01001080	          0.01001070	          0.01001079	          0.01001077	          0.01001079	          0.01001079	          0.01001080	          0.01001080	          0.01001081	          0.01001080	          0.01001085	          0.01001073	          0.01001079	          0.01001080	          0.01001074	          0.01001072	          0.01001045	          0.01001094	          0.01001087	          0.01001079	          0.01001078	          0.01001073	          0.01001074	          0.01001080	          0.01001079	          0.01001077	          0.01001081	          0.01001078	
          1.93000000	        -29.49298838	          8.02695673	          0.48065437	         -2.19061441	         51.96316634	         -6.53653316	         68.64036072	         70.15251392	        -18.52654128	          0.01001081	          0.01001076	          0.01001079	          0.01001080	          0.01001080	          0.01001080	          0.01001082	          0.01001080	          0.01001080	          0.01001079	          0.01001083	          0.01001080	          0.01001075	          0.01001081	          0.01001083	          0.01001081	          0.01001086	          0.01001078	          0.01001086	          0.01001083	          0.01001077	          0.01001036	          0.01001091	          0.01001089	          0.01001079	          0.01001078	          0.01001080	          0.01001077	          0.01001081	          0.01001080	          0.01001078	          0.01001080	          0.01001072	
          1.94000000	        -29.72465581	          8.19329734	          0.38055283	         -2.11884169	         52.39069231	         -6.66176130	         68.43043807	         70.49761517	        -18.57912494	          0.01001081	          0.01001082	          0.01001074	          0.01001081	          0.01001073	          0.01001077	          0.01001083	          0.01001078	          0.01001080	          0.01001074	          0.01001070	          0.01001078	          0.01001073	          0.01001077	          0.01001093	          0.01001095	          0.01001071	          0.01001072	          0.01001091	          0.01001092	          0.01001083	          0.01001028	          0.01001089	          0.01001089	          0.01001073	          0.01001075	          0.01001081	          0.01001078	          0.01001075	          0.01001080	          0.01001077	          0.01001079	          0.01001075	
          1.95000000	        -29.95567274	          8.35853315	          0.27886868	         -2.04666689	         52.81408853	         -6.78624482	         68.21435149	         70.83971549	        -18.66137052	          0.01001078	          0.01001078	          0.01001089	          0.01001075	          0.01001087	          0.01001080	          0.01001137	          0.01001084	          0.01001078	          0.01001089	          0.01001081	          0.01001077	          0.01001112	          0.01001085	          0.01001106	          0.01001110	          0.01001132	          0.01001088	          0.01001140	          0.01001107	          0.01001073	          0.01001019	          0.01001091	          0.01001079	          0.01001084	          0.01001125	          0.01001077	          0.01001130	          0.01001089	          0.01001076	          0.01001074	          0.01001090	          0.01001104	
          1.96000000	        -30.18515909	          8.52207822	          0.17722255	         -1.97445025	         53.23324189	         -6.90966548	         67.99227529	         71.17885831	        -18.78028056	          0.01001101	          0.01001100	          0.01001102	          0.01001096	          0.01001092	          0.01001100	          0.01000920	          0.01001106	          0.01001104	          0.01001118	          0.01001079	          0.01001104	          0.01001039	          0.01001105	          0.01000966	          0.01000961	          0.01000942	          0.01001107	          0.01000864	          0.01000956	          0.01001111	          0.01001016	          0.01001114	          0.01001132	          0.01001084	          0.01000974	          0.01001086	          0.01000947	          0.01001093	          0.01001099	          0.01001099	          0.01001116	          0.01001053	
